<svg width="19" height="20" viewBox="0 0 19 20" fill="none" xmlns="http://www.w3.org/2000/svg">
<path d="M18 16C18 17.93 16.43 19.5 14.5 19.5H12.03V17C12.03 15.62 10.91 14.5 9.53003 14.5C8.15003 14.5 7.03003 15.62 7.03003 17V19.5H4.5C2.57 19.5 1 17.93 1 16V11.3501C1.8 11.7601 2.68999 12 3.48999 12C4.61999 12 5.72 11.53 6.5 10.78C7.27 11.53 8.37 12 9.5 12C10.63 12 11.73 11.53 12.5 10.78C13.28 11.53 14.38 12 15.51 12C16.31 12 17.2 11.7601 18 11.3501V16ZM18.974 6.84204L17.886 3.5769C17.273 1.7359 15.557 0.5 13.617 0.5H5.383C3.443 0.5 1.72801 1.7359 1.11401 3.5769L0.026001 6.84204C0.00900098 6.89404 0 6.94598 0 7.00098C0.003 8.93098 1.56799 10.5 3.48999 10.5C4.67799 10.5 5.81801 9.91894 6.49701 9.03394C7.17001 9.91894 8.309 10.5 9.5 10.5C10.691 10.5 11.83 9.91894 12.503 9.03394C13.182 9.91894 14.323 10.5 15.51 10.5C17.431 10.5 18.997 8.93098 19 7.00098C19 6.94598 18.991 6.89404 18.974 6.84204Z" fill="#0B0C17"/>
</svg>
