<svg width="20" height="20" viewBox="0 0 20 20" fill="none" xmlns="http://www.w3.org/2000/svg">
<path d="M11.5 10C11.5 10.83 10.83 11.5 10 11.5C9.17 11.5 8.5 10.83 8.5 10C8.5 9.17 9.17 8.5 10 8.5C10.83 8.5 11.5 9.17 11.5 10ZM19.5 10C19.5 15.24 15.24 19.5 10 19.5C4.76 19.5 0.5 15.24 0.5 10C0.5 4.76 4.76 0.5 10 0.5C15.24 0.5 19.5 4.76 19.5 10ZM14.69 5.31006C14.31 4.94006 13.78 4.78992 13.26 4.91992L9.20999 5.92993C7.58999 6.33993 6.33999 7.58996 5.92999 9.20996L4.92001 13.26C4.79001 13.78 4.94 14.3099 5.31 14.6899C5.6 14.9699 5.98 15.1299 6.37 15.1299C6.49 15.1299 6.61999 15.1101 6.73999 15.0801L10.79 14.0701C12.41 13.6601 13.66 12.41 14.07 10.79L15.08 6.73999C15.21 6.21999 15.06 5.69006 14.69 5.31006Z" fill="#F83B01"/>
</svg>
