<svg width="20" height="20" viewBox="0 0 20 20" fill="none" xmlns="http://www.w3.org/2000/svg">
<path d="M19.707 18.293L15.168 13.7539C16.311 12.3059 17 10.483 17 8.5C17 3.813 13.187 0 8.5 0C3.813 0 0 3.813 0 8.5C0 13.187 3.813 17 8.5 17C10.484 17 12.306 16.312 13.754 15.168L18.293 19.707C18.488 19.902 18.744 20 19 20C19.256 20 19.512 19.902 19.707 19.707C20.098 19.316 20.098 18.684 19.707 18.293ZM2 8.5C2 4.916 4.916 2 8.5 2C12.084 2 15 4.916 15 8.5C15 12.084 12.084 15 8.5 15C4.916 15 2 12.084 2 8.5Z" fill="#0B0C17"/>
</svg>
