<svg width="16" height="16" viewBox="0 0 16 16" fill="none" xmlns="http://www.w3.org/2000/svg">
<path d="M7.99973 3.09998C4.81306 3.09998 2.21973 5.69331 2.21973 8.87998C2.21973 12.0666 4.81306 14.6666 7.99973 14.6666C11.1864 14.6666 13.7797 12.0733 13.7797 8.88664C13.7797 5.69998 11.1864 3.09998 7.99973 3.09998ZM8.49973 8.66664C8.49973 8.93998 8.27306 9.16664 7.99973 9.16664C7.72639 9.16664 7.49973 8.93998 7.49973 8.66664V5.33331C7.49973 5.05998 7.72639 4.83331 7.99973 4.83331C8.27306 4.83331 8.49973 5.05998 8.49973 5.33331V8.66664Z" fill="#FE8800"/>
<path d="M9.92708 2.29998H6.07375C5.80708 2.29998 5.59375 2.08665 5.59375 1.81998C5.59375 1.55331 5.80708 1.33331 6.07375 1.33331H9.92708C10.1937 1.33331 10.4071 1.54665 10.4071 1.81331C10.4071 2.07998 10.1937 2.29998 9.92708 2.29998Z" fill="#FE8800"/>
</svg>
